# Blender v2.79 (sub 0) OBJ File: 'maggots.blend'
# www.blender.org
mtllib maggot6s.mtl
o Sphere_Sphere.001
v 0.118796 0.258711 -1.670519
v 0.198299 0.160767 -1.632335
v 0.223431 0.009880 -1.503341
v 0.169188 0.357854 -1.500455
v 0.280055 0.210269 -1.470333
v 0.297748 0.016195 -1.416779
v 0.452390 1.166185 1.064666
v 0.513648 1.204976 0.871445
v 0.678901 0.664919 0.978468
v 0.604844 0.042964 1.067437
v 0.559318 1.224322 0.631519
v 0.780384 0.681486 0.640738
v 0.675229 0.070854 0.628489
v 0.516416 1.139814 -0.053258
v 0.657371 0.059739 -0.028298
v 0.714077 0.637222 -0.054589
v 0.370688 0.808681 -0.801368
v 0.458190 0.994162 -0.420214
v 0.489540 0.033361 -0.700598
v 0.560883 0.050092 -0.370474
v 0.505770 0.449536 -0.754731
v 0.609917 0.544117 -0.398311
v 0.542992 1.189666 0.294348
v 0.658194 0.074039 0.291300
v 0.761609 0.663780 0.306205
v 0.352671 1.088001 1.234275
v 0.470445 0.700611 1.368077
v 0.271319 0.336177 1.509981
v 0.582551 0.675970 1.166121
v 0.296989 0.251663 1.513886
v 0.240431 -0.002381 1.125718
v 0.214020 1.295750 0.943054
v 0.095324 0.320358 1.553403
v 0.193314 0.731158 1.406701
v 0.177472 1.102850 1.261044
v 0.150655 0.231056 1.516375
v 0.186063 1.219353 1.107134
v 0.146582 0.328585 1.666651
v 0.176645 0.263329 1.687168
v 0.097978 0.297165 1.599956
v 0.111494 0.239225 1.633236
v 0.048261 0.284140 1.699079
v 0.058598 0.260440 1.695315
v 0.009549 0.283308 1.684956
v 0.021791 0.255843 1.684383
v 0.246920 0.040797 -1.594415
v 0.336101 0.073404 -1.448347
v 0.726801 0.340393 1.045067
v 0.801822 0.374591 0.629495
v 0.760700 0.347122 -0.043480
v 0.574514 0.239613 -0.727646
v 0.662260 0.295255 -0.387401
v 0.798260 0.364805 0.316866
v 0.401854 0.516755 1.410548
v 0.598125 0.389018 1.256035
v 0.165085 0.533227 1.480048
v 0.630726 0.670763 1.087126
v 0.483590 1.194329 0.976991
v 0.407057 0.133566 1.306051
v 0.189602 0.080615 1.385284
v 0.200041 1.256763 1.022748
v 0.674773 0.358787 1.176235
v 0.252113 0.566387 -1.210707
v 0.372122 0.035843 -1.101875
v 0.384765 0.327647 -1.166575
v 0.432448 0.147897 -1.134124
v 0.069219 0.389448 -1.508183
v 0.217140 1.313380 0.631861
v 0.215395 1.234771 -0.053100
v 0.154042 0.897335 -0.808683
v 0.190896 1.097680 -0.423745
v 0.226574 1.285289 0.294592
v 0.104127 0.628000 -1.219020
v 0.111665 0.000573 -1.390123
v 0.249920 0.010781 0.631167
v 0.273726 0.003304 -0.030564
v 0.184985 0.001075 -0.673366
v 0.212716 0.007743 -0.356482
v 0.279560 0.008542 0.316662
v 0.140099 -0.001876 -1.073415
v -0.125843 0.258707 -1.670519
v -0.205342 0.160759 -1.632336
v -0.230461 0.009861 -1.503343
v -0.176258 0.357825 -1.500460
v -0.287101 0.210225 -1.470339
v -0.304766 0.016152 -1.416785
v -0.449157 1.163577 1.051942
v -0.517213 1.204128 0.867998
v -0.686126 0.664670 0.978459
v -0.615851 0.045071 1.076371
v -0.566724 1.224121 0.631498
v -0.771157 0.678223 0.625136
v -0.682242 0.070635 0.628469
v -0.523746 1.139660 -0.053272
v -0.606113 0.054811 -0.053264
v -0.721260 0.637020 -0.054608
v -0.377914 0.808581 -0.801382
v -0.465434 0.994087 -0.420223
v -0.496575 0.033244 -0.700614
v -0.567970 0.049995 -0.370486
v -0.512900 0.449404 -0.754749
v -0.617087 0.544011 -0.398324
v -0.550366 1.189479 0.294330
v -0.665227 0.073854 0.291283
v -0.740846 0.660053 0.288067
v -0.353387 1.085441 1.221620
v -0.477686 0.700438 1.368080
v -0.263128 0.344391 1.517720
v -0.589784 0.675756 1.166120
v -0.290531 0.258528 1.507491
v -0.254947 -0.001122 1.127018
v -0.221477 1.295670 0.943051
v -0.074702 0.331910 1.557656
v -0.200558 0.731087 1.406711
v -0.183522 1.102474 1.259430
v -0.120615 0.236885 1.542668
v -0.193495 1.219284 1.107130
v -0.145543 0.340836 1.646958
v -0.178890 0.274992 1.658608
v -0.082002 0.311011 1.593378
v -0.102431 0.252369 1.621504
v -0.057358 0.296531 1.701311
v -0.066214 0.272828 1.694795
v -0.016382 0.296246 1.696878
v -0.027810 0.268706 1.692942
v -0.253956 0.040783 -1.594416
v -0.343127 0.073354 -1.448354
v -0.733909 0.340131 1.045064
v -0.808929 0.374318 0.629471
v -0.742322 0.344470 -0.056297
v -0.581594 0.239471 -0.727665
v -0.669384 0.295137 -0.387414
v -0.760077 0.358621 0.285923
v -0.407519 0.517990 1.415880
v -0.605250 0.388799 1.256051
v -0.172253 0.533166 1.480056
v -0.637955 0.670532 1.087120
v -0.482748 1.192518 0.968468
v -0.415871 0.134043 1.309688
v -0.201012 0.081882 1.396333
v -0.207486 1.256688 1.022745
v -0.681888 0.358540 1.176237
v -0.259238 0.566332 -1.210715
v -0.379148 0.035772 -1.101885
v -0.391842 0.327568 -1.166586
v -0.439492 0.147812 -1.134136
v -0.003509 0.002118 -1.373645
v -0.003523 0.214540 -1.719928
v -0.003523 0.097173 -1.759980
v -0.003520 0.015816 -1.549795
v -0.003540 0.412431 -1.513814
v -0.003500 -0.011290 0.628533
v -0.003732 1.308329 0.984505
v -0.010604 -0.009471 1.143124
v -0.003726 1.349519 0.632136
v 0.039121 -0.021419 -0.032628
v -0.003685 1.275104 -0.053098
v -0.003516 -0.007696 -0.656556
v -0.002561 -0.007337 -0.347809
v -0.003630 0.933121 -0.813894
v -0.003641 1.144255 -0.426309
v 0.058602 -0.025539 0.326563
v -0.003710 1.326133 0.294673
v -0.003698 1.110135 1.278080
v -0.003623 0.753185 1.434404
v -0.003545 0.344839 1.573012
v -0.003718 1.224166 1.128159
v -0.003522 0.226318 1.586612
v -0.003523 0.020653 -1.715613
v -0.003233 0.550961 1.513419
v -0.003726 1.266571 1.043097
v -0.003499 0.071145 1.444174
v -0.003510 -0.014004 -1.055838
v -0.003575 0.644070 -1.224992
v -0.076294 0.389435 -1.508185
v -0.224578 1.313301 0.631853
v -0.222752 1.234706 -0.053107
v -0.161292 0.897292 -0.808689
v -0.198163 1.097646 -0.423749
v -0.233981 1.285210 0.294584
v -0.111270 0.627975 -1.219023
v -0.118682 0.000556 -1.390125
v -0.262988 0.013060 0.628477
v -0.208570 0.000981 -0.042404
v -0.192016 0.001031 -0.673372
v -0.218816 0.007684 -0.356604
v -0.221676 0.005682 0.302127
v -0.147119 -0.001903 -1.073419
vn -0.0102 -0.9969 -0.0775
vn 0.4295 0.1663 -0.8876
vn 0.5014 -0.2257 -0.8353
vn 0.0193 0.7212 -0.6924
vn 0.0406 -0.9983 -0.0419
vn 0.7478 0.4420 -0.4954
vn 0.8280 0.2168 -0.5172
vn 0.2907 0.7866 -0.5447
vn 0.0786 0.8993 0.4301
vn 0.7884 0.3570 0.5009
vn 0.9027 0.3490 0.2517
vn 0.9639 0.1264 0.2344
vn 0.9947 0.0954 -0.0384
vn 0.1544 -0.9880 0.0016
vn 0.1677 0.9832 -0.0727
vn 0.9225 0.3780 -0.0777
vn 0.8941 0.3212 -0.3122
vn 0.1955 0.9206 -0.3380
vn 0.1334 -0.9908 -0.0237
vn 0.9373 0.1595 -0.3098
vn 0.9109 0.2187 -0.3499
vn 0.9274 0.2197 -0.3028
vn 0.1268 -0.9916 -0.0251
vn 0.1147 -0.9932 0.0184
vn 0.1815 0.8081 -0.5604
vn 0.2111 0.8585 -0.4673
vn 0.8594 0.3249 -0.3948
vn 0.8945 0.2881 -0.3418
vn 0.9188 0.3705 -0.1361
vn 0.1759 0.9737 -0.1450
vn 0.1587 -0.9869 0.0273
vn 0.9831 0.1344 -0.1242
vn 0.1691 0.3666 0.9149
vn 0.2205 0.2315 0.9475
vn 0.7719 0.0900 0.6293
vn 0.2888 -0.6845 0.6693
vn 0.0878 0.7924 0.6037
vn -0.8829 -0.4068 -0.2346
vn 0.7878 0.2471 0.5642
vn 0.8370 0.3214 0.4429
vn 0.3333 -0.0175 0.9426
vn 0.2110 0.8047 0.5549
vn 0.2966 -0.6156 0.7301
vn 0.1909 0.3377 0.9217
vn 0.1377 0.3818 0.9139
vn 0.2497 0.8813 0.4013
vn -0.3177 0.9475 -0.0349
vn 0.7485 0.3684 0.5514
vn 0.1672 -0.9731 0.1584
vn -0.2081 0.9778 0.0231
vn -0.2944 -0.2090 0.9326
vn -0.5501 -0.4382 -0.7109
vn 0.1281 0.2394 0.9624
vn 0.0389 -0.9350 0.3526
vn 0.2272 0.2598 0.9386
vn 0.6187 -0.3225 0.7164
vn 0.6050 0.0698 0.7931
vn 0.2539 0.2776 0.9265
vn 0.9213 -0.3873 -0.0338
vn 0.9044 -0.3902 -0.1725
vn 0.8683 -0.4393 -0.2304
vn 0.9049 -0.3614 -0.2247
vn 0.9126 -0.4082 -0.0248
vn 0.9180 -0.3750 0.1290
vn 0.5696 -0.7761 -0.2705
vn 0.0753 -0.9886 -0.1307
vn 0.7188 -0.3633 0.5927
vn 0.2997 0.9013 0.3127
vn 0.0846 -0.9547 0.2852
vn 0.8851 0.3275 0.3306
vn 0.9080 0.2186 0.3573
vn 0.2478 -0.8698 0.4267
vn 0.1200 0.8520 0.5096
vn 0.6944 -0.4026 0.5965
vn 0.8301 -0.5385 -0.1447
vn 0.7846 0.4042 -0.4700
vn 0.2033 0.7535 -0.6252
vn 0.1274 -0.9918 0.0063
vn 0.9013 0.2325 -0.3654
vn 0.3109 0.7206 -0.6198
vn 0.2914 0.9444 -0.1522
vn 0.3354 0.8184 -0.4666
vn 0.3388 0.7653 -0.5473
vn 0.3082 0.8762 -0.3704
vn 0.2688 0.9588 -0.0919
vn 0.0368 -0.9988 -0.0309
vn 0.1280 -0.9918 -0.0030
vn 0.0595 -0.9982 0.0085
vn 0.0636 -0.9979 0.0080
vn 0.0874 -0.9953 -0.0428
vn 0.1181 -0.9920 0.0441
vn 0.1298 -0.9910 -0.0325
vn 0.0574 -0.9983 -0.0103
vn 0.1183 0.9891 0.0882
vn 0.2780 0.9565 0.0888
vn 0.0103 -0.9969 -0.0775
vn -0.4295 0.1663 -0.8876
vn -0.5014 -0.2257 -0.8353
vn -0.0193 0.7212 -0.6924
vn -0.0405 -0.9983 -0.0421
vn -0.7479 0.4419 -0.4954
vn -0.8280 0.2167 -0.5171
vn -0.2908 0.7866 -0.5447
vn -0.0790 0.8993 0.4301
vn -0.7812 0.3841 0.4922
vn -0.9139 0.3362 0.2276
vn -0.9652 0.1552 0.2105
vn -0.9885 0.0927 -0.1196
vn -0.1441 -0.9895 -0.0065
vn -0.1680 0.9831 -0.0727
vn -0.9344 0.3442 -0.0916
vn -0.8942 0.3210 -0.3122
vn -0.1957 0.9206 -0.3380
vn -0.1274 -0.9918 -0.0086
vn -0.9530 0.1244 -0.2764
vn -0.9109 0.2185 -0.3500
vn -0.9274 0.2195 -0.3029
vn -0.1265 -0.9916 -0.0251
vn -0.1144 -0.9933 0.0186
vn -0.1817 0.8081 -0.5604
vn -0.2113 0.8585 -0.4673
vn -0.8595 0.3247 -0.3949
vn -0.8946 0.2879 -0.3418
vn -0.9312 0.3508 -0.0994
vn -0.1762 0.9736 -0.1450
vn -0.1440 -0.9894 0.0190
vn -0.9960 0.0679 -0.0580
vn -0.1954 0.3865 0.9013
vn -0.2118 0.2464 0.9457
vn -0.7754 0.0929 0.6246
vn -0.3425 -0.6186 0.7071
vn -0.0919 0.7899 0.6064
vn 0.9097 -0.4017 -0.1054
vn -0.7880 0.2468 0.5641
vn -0.8169 0.3458 0.4616
vn -0.3006 0.0584 0.9520
vn -0.2571 0.7869 0.5609
vn -0.2579 -0.6217 0.7396
vn -0.1906 0.3374 0.9219
vn -0.1425 0.3837 0.9124
vn -0.2815 0.8625 0.4207
vn 0.3058 0.9503 0.0577
vn -0.7444 0.3037 0.5947
vn -0.1704 -0.9583 0.2293
vn 0.1673 0.9853 0.0342
vn 0.0646 -0.2239 0.9725
vn 0.7096 -0.4209 -0.5651
vn -0.3579 0.2207 0.9073
vn -0.1114 -0.9416 0.3179
vn -0.2240 0.2626 0.9385
vn -0.6233 -0.3124 0.7169
vn -0.6069 0.0069 0.7947
vn -0.2297 0.2956 0.9273
vn -0.9239 -0.3729 -0.0854
vn -0.9043 -0.3903 -0.1726
vn -0.8682 -0.4395 -0.2305
vn -0.9054 -0.4068 -0.1212
vn -0.9324 -0.3516 -0.0838
vn -0.9206 -0.3700 0.1252
vn -0.5695 -0.7762 -0.2705
vn -0.0753 -0.9886 -0.1307
vn -0.7222 -0.3434 0.6005
vn -0.3177 0.8872 0.3346
vn -0.0822 -0.9556 0.2829
vn -0.8706 0.3421 0.3534
vn -0.9081 0.2183 0.3573
vn -0.2498 -0.8705 0.4240
vn -0.1203 0.8520 0.5096
vn -0.6687 -0.3602 0.6504
vn -0.8300 -0.5386 -0.1447
vn -0.7847 0.4041 -0.4701
vn -0.2034 0.7535 -0.6252
vn -0.1272 -0.9919 0.0062
vn -0.9014 0.2323 -0.3654
vn -0.3111 0.7205 -0.6198
vn -0.2917 0.9443 -0.1521
vn -0.3356 0.8183 -0.4666
vn -0.3390 0.7652 -0.5473
vn -0.3084 0.8762 -0.3704
vn -0.2691 0.9587 -0.0919
vn -0.0366 -0.9989 -0.0309
vn -0.1012 -0.9949 0.0017
vn -0.0591 -0.9982 0.0087
vn -0.0634 -0.9980 0.0080
vn -0.0793 -0.9965 -0.0264
vn -0.1032 -0.9945 0.0173
vn -0.1298 -0.9910 -0.0314
vn -0.0644 -0.9979 -0.0121
vn -0.1186 0.9890 0.0882
vn -0.2815 0.9551 0.0927
usemtl white.001
s off
f 147//1 150//1 3//1
f 149//2 148//2 1//2 2//2
f 169//3 149//3 2//3 46//3
f 148//4 151//4 1//4
f 147//5 3//5 6//5 74//5
f 2//6 1//6 4//6 5//6
f 46//7 2//7 5//7 47//7
f 1//8 151//8 67//8 4//8
f 61//9 171//9 167//9 37//9
f 29//10 7//10 26//10 27//10
f 9//11 12//11 11//11 8//11
f 48//12 49//12 12//12 9//12
f 53//13 25//13 12//13 49//13
f 79//14 24//14 13//14 75//14
f 72//15 163//15 155//15 68//15
f 25//16 23//16 11//16 12//16
f 22//17 18//17 14//17 16//17
f 71//18 161//18 157//18 69//18
f 78//19 20//19 15//19 76//19
f 52//20 22//20 16//20 50//20
f 66//21 65//21 21//21 51//21
f 51//22 21//22 22//22 52//22
f 80//23 64//23 19//23 77//23
f 77//24 19//24 20//24 78//24
f 73//25 174//25 160//25 70//25
f 70//26 160//26 161//26 71//26
f 65//27 63//27 17//27 21//27
f 21//28 17//28 18//28 22//28
f 16//29 14//29 23//29 25//29
f 69//30 157//30 163//30 72//30
f 76//31 15//31 24//31 79//31
f 50//32 16//32 25//32 53//32
f 34//33 27//33 26//33 35//33
f 56//34 54//34 27//34 34//34
f 55//35 29//35 27//35 54//35
f 60//36 59//36 30//36 36//36
f 37//37 167//37 164//37 35//37
f 33//38 36//38 41//38 40//38
f 62//39 57//39 29//39 55//39
f 57//40 58//40 7//40 29//40
f 168//41 36//41 33//41 166//41
f 7//42 37//42 35//42 26//42
f 172//43 60//43 36//43 168//43
f 170//44 56//44 34//44 165//44
f 165//45 34//45 35//45 164//45
f 58//46 61//46 37//46 7//46
f 38//47 40//47 44//47 42//47
f 30//48 28//48 38//48 39//48
f 36//49 30//49 39//49 41//49
f 28//50 33//50 40//50 38//50
f 45//51 43//51 42//51 44//51
f 40//52 41//52 45//52 44//52
f 39//53 38//53 42//53 43//53
f 41//54 39//54 43//54 45//54
f 166//55 33//55 56//55 170//55
f 59//56 62//56 55//56
f 30//57 55//57 54//57 28//57
f 33//58 28//58 54//58 56//58
f 15//59 50//59 53//59 24//59
f 19//60 51//60 52//60 20//60
f 64//61 66//61 51//61 19//61
f 20//62 52//62 50//62 15//62
f 24//63 53//63 49//63 13//63
f 10//64 13//64 49//64 48//64
f 3//65 46//65 47//65 6//65
f 150//66 169//66 46//66 3//66
f 10//67 48//67 62//67 59//67
f 8//68 32//68 61//68 58//68
f 154//69 31//69 60//69 172//69
f 9//70 8//70 58//70 57//70
f 48//71 9//71 57//71 62//71
f 31//72 10//72 59//72 60//72
f 32//73 153//73 171//73 61//73
f 55//74 30//74 59//74
f 6//75 47//75 66//75 64//75
f 5//76 4//76 63//76 65//76
f 67//77 151//77 174//77 73//77
f 74//78 6//78 64//78 80//78
f 47//79 5//79 65//79 66//79
f 4//80 67//80 73//80 63//80
f 14//81 69//81 72//81 23//81
f 17//82 70//82 71//82 18//82
f 63//83 73//83 70//83 17//83
f 18//84 71//84 69//84 14//84
f 23//85 72//85 68//85 11//85
f 147//86 74//86 80//86 173//86
f 156//87 76//87 79//87 162//87
f 158//88 77//88 78//88 159//88
f 173//89 80//89 77//89 158//89
f 159//90 78//90 76//90 156//90
f 162//91 79//91 75//91 152//91
f 31//92 75//92 13//92 10//92
f 75//93 31//93 154//93 152//93
f 32//94 68//94 155//94 153//94
f 8//95 11//95 68//95 32//95
f 147//96 83//96 150//96
f 149//97 82//97 81//97 148//97
f 169//98 126//98 82//98 149//98
f 148//99 81//99 151//99
f 147//100 182//100 86//100 83//100
f 82//101 85//101 84//101 81//101
f 126//102 127//102 85//102 82//102
f 81//103 84//103 175//103 151//103
f 141//104 117//104 167//104 171//104
f 109//105 107//105 106//105 87//105
f 89//106 88//106 91//106 92//106
f 128//107 89//107 92//107 129//107
f 133//108 129//108 92//108 105//108
f 187//109 183//109 93//109 104//109
f 180//110 176//110 155//110 163//110
f 105//111 92//111 91//111 103//111
f 102//112 96//112 94//112 98//112
f 179//113 177//113 157//113 161//113
f 186//114 184//114 95//114 100//114
f 132//115 130//115 96//115 102//115
f 146//116 131//116 101//116 145//116
f 131//117 132//117 102//117 101//117
f 188//118 185//118 99//118 144//118
f 185//119 186//119 100//119 99//119
f 181//120 178//120 160//120 174//120
f 178//121 179//121 161//121 160//121
f 145//122 101//122 97//122 143//122
f 101//123 102//123 98//123 97//123
f 96//124 105//124 103//124 94//124
f 177//125 180//125 163//125 157//125
f 184//126 187//126 104//126 95//126
f 130//127 133//127 105//127 96//127
f 114//128 115//128 106//128 107//128
f 136//129 114//129 107//129 134//129
f 135//130 134//130 107//130 109//130
f 140//131 116//131 110//131 139//131
f 117//132 115//132 164//132 167//132
f 113//133 120//133 121//133 116//133
f 142//134 135//134 109//134 137//134
f 137//135 109//135 87//135 138//135
f 168//136 166//136 113//136 116//136
f 87//137 106//137 115//137 117//137
f 172//138 168//138 116//138 140//138
f 170//139 165//139 114//139 136//139
f 165//140 164//140 115//140 114//140
f 138//141 87//141 117//141 141//141
f 118//142 122//142 124//142 120//142
f 110//143 119//143 118//143 108//143
f 116//144 121//144 119//144 110//144
f 108//145 118//145 120//145 113//145
f 125//146 124//146 122//146 123//146
f 120//147 124//147 125//147 121//147
f 119//148 123//148 122//148 118//148
f 121//149 125//149 123//149 119//149
f 166//150 170//150 136//150 113//150
f 139//151 135//151 142//151
f 110//152 108//152 134//152 135//152
f 113//153 136//153 134//153 108//153
f 95//154 104//154 133//154 130//154
f 99//155 100//155 132//155 131//155
f 144//156 99//156 131//156 146//156
f 100//157 95//157 130//157 132//157
f 104//158 93//158 129//158 133//158
f 90//159 128//159 129//159 93//159
f 83//160 86//160 127//160 126//160
f 150//161 83//161 126//161 169//161
f 90//162 139//162 142//162 128//162
f 88//163 138//163 141//163 112//163
f 154//164 172//164 140//164 111//164
f 89//165 137//165 138//165 88//165
f 128//166 142//166 137//166 89//166
f 111//167 140//167 139//167 90//167
f 112//168 141//168 171//168 153//168
f 135//169 139//169 110//169
f 86//170 144//170 146//170 127//170
f 85//171 145//171 143//171 84//171
f 175//172 181//172 174//172 151//172
f 182//173 188//173 144//173 86//173
f 127//174 146//174 145//174 85//174
f 84//175 143//175 181//175 175//175
f 94//176 103//176 180//176 177//176
f 97//177 98//177 179//177 178//177
f 143//178 97//178 178//178 181//178
f 98//179 94//179 177//179 179//179
f 103//180 91//180 176//180 180//180
f 147//181 173//181 188//181 182//181
f 156//182 162//182 187//182 184//182
f 158//183 159//183 186//183 185//183
f 173//184 158//184 185//184 188//184
f 159//185 156//185 184//185 186//185
f 162//186 152//186 183//186 187//186
f 111//187 90//187 93//187 183//187
f 183//188 152//188 154//188 111//188
f 112//189 153//189 155//189 176//189
f 88//190 112//190 176//190 91//190
